<svg width="48" height="48" viewBox="0 0 48 48" fill="none" xmlns="http://www.w3.org/2000/svg">
<circle opacity="0.3" cx="24" cy="24" r="24" fill="#FDB001"/>
<path d="M24.0159 36C21.6412 36.0031 19.3189 35.3016 17.3431 33.9843C15.3673 32.6669 13.8267 30.7929 12.9165 28.5996C12.0063 26.4062 11.7673 23.9921 12.2298 21.6628C12.6923 19.3336 13.8355 17.1939 15.5147 15.5147C17.1939 13.8355 19.3336 12.6923 21.6628 12.2298C23.9921 11.7673 26.4062 12.0063 28.5996 12.9165C30.7929 13.8267 32.6669 15.3673 33.9843 17.3431C35.3016 19.3189 36.0031 21.6412 36 24.016C35.9958 27.193 34.7318 30.2388 32.4853 32.4853C30.2388 34.7318 27.193 35.9958 24.0159 36ZM24.0159 12.8138C21.8067 12.8138 19.647 13.4689 17.8101 14.6963C15.9732 15.9237 14.5415 17.6683 13.696 19.7094C12.8506 21.7505 12.6294 23.9964 13.0604 26.1632C13.4914 28.33 14.5552 30.3204 16.1174 31.8826C17.6796 33.4447 19.6699 34.5086 21.8367 34.9396C24.0036 35.3706 26.2495 35.1494 28.2906 34.304C30.3317 33.4585 32.0762 32.0268 33.3036 30.1899C34.531 28.3529 35.1862 26.1933 35.1862 23.984C35.1862 22.5171 34.8972 21.0646 34.3359 19.7094C33.7745 18.3541 32.9517 17.1228 31.9145 16.0855C30.8772 15.0483 29.6458 14.2255 28.2906 13.6641C26.9354 13.1028 25.4828 12.8138 24.0159 12.8138Z" fill="#1D1D1B"/>
<path d="M24.5917 30.6386H24.4481C24.3818 30.5979 24.3294 30.5378 24.2981 30.4666C24.2667 30.3953 24.2578 30.3161 24.2726 30.2397V18.3993C24.2691 18.3306 24.2834 18.2622 24.3142 18.2006C24.3449 18.1391 24.3911 18.0866 24.4481 18.0482C24.5222 18.017 24.6046 18.0111 24.6824 18.0313C24.7602 18.0515 24.8293 18.0966 24.879 18.1599L29.8736 23.7769C29.9364 23.8471 29.9712 23.938 29.9712 24.0322C29.9712 24.1264 29.9364 24.2173 29.8736 24.2876L24.879 30.511C24.8037 30.5895 24.7005 30.6354 24.5917 30.6386ZM24.9907 19.4684V29.1227L29.0598 24.0322L24.9907 19.4684Z" fill="#1D1D1B"/>
<path d="M20.4258 30.6388H20.5534C20.6175 30.6378 20.6805 30.623 20.7383 30.5955C20.7961 30.5679 20.8474 30.5283 20.8885 30.4792L24.2719 26.25V24.9962L20.9524 29.1228V19.4686L24.2719 23.2177V21.9567L20.8566 18.1282C20.803 18.0653 20.7311 18.0207 20.651 18.0005C20.5709 17.9802 20.4865 17.9853 20.4095 18.0151C20.3324 18.0449 20.2665 18.0978 20.2208 18.1667C20.1751 18.2355 20.152 18.3169 20.1545 18.3994V30.2718C20.1567 30.3534 20.1839 30.4323 20.2325 30.4979C20.281 30.5635 20.3484 30.6127 20.4258 30.6388Z" fill="#1D1D1B"/>
</svg>
